PathFileType	4	(X/Y/Z)	C:/Users/opensim2020/Desktop/walking_exp_matlab/subject06_walking16_straight_02.trc																																																																																																																																																							
DataRate	CameraRate	NumFrames	NumMarkers	Units	OrigDataRate	OrigDataStartFrame	OrigNumFrames																																																																																																																																																			
100	100	6	51	mm	100	2024	283																																																																																																																																																			
Frame#	Time	LFHD			RFHD			LBHD			RBHD			C7			T10			CLAV			STRN			RBAK			LSHO			LUPA			LELB			LFRM			LWRA			LWRB			LFIN			RSHO			RUPA			RELB			RFRM			RWRA			RWRB			RFIN			LASI			RASI			LPSI			RPSI			LTHI			LKNE			LTIB			LANK			LHEE			LTOE			RTHI			RKNE			RTIB			RANK			RHEE			RTOE			*39			*40			*41			*42			*43			*44			*45			*46			*47			*48			*49			*50		
		X1	Y1	Z1	X2	Y2	Z2	X3	Y3	Z3	X4	Y4	Z4	X5	Y5	Z5	X6	Y6	Z6	X7	Y7	Z7	X8	Y8	Z8	X9	Y9	Z9	X10	Y10	Z10	X11	Y11	Z11	X12	Y12	Z12	X13	Y13	Z13	X14	Y14	Z14	X15	Y15	Z15	X16	Y16	Z16	X17	Y17	Z17	X18	Y18	Z18	X19	Y19	Z19	X20	Y20	Z20	X21	Y21	Z21	X22	Y22	Z22	X23	Y23	Z23	X24	Y24	Z24	X25	Y25	Z25	X26	Y26	Z26	X27	Y27	Z27	X28	Y28	Z28	X29	Y29	Z29	X30	Y30	Z30	X31	Y31	Z31	X32	Y32	Z32	X33	Y33	Z33	X34	Y34	Z34	X35	Y35	Z35	X36	Y36	Z36	X37	Y37	Z37	X38	Y38	Z38	X39	Y39	Z39	X40	Y40	Z40	X41	Y41	Z41	X42	Y42	Z42	X43	Y43	Z43	X44	Y44	Z44	X45	Y45	Z45	X46	Y46	Z46	X47	Y47	Z47	X48	Y48	Z48	X49	Y49	Z49	X50	Y50	Z50	X51	Y51	Z51
																																																																																																																																																										
71	0.7	-831.81018	1669.13696	-1545.4502	-841.76703	1658.01978	-1414.71875	-965.70514	1617.16248	-1556.06323	-973.73676	1611.39929	-1427.71936	-975.44629	1459.81128	-1496.68433	-1006.77155	1130.1637	-1480.68127	-866.06787	1381.47046	-1489.12134	-826.79095	1205.55273	-1491.3291	-1051.1333	1289.81519	-1415.13196	-912.48944	1410.71838	-1653.14832	-894.82239	1211.59814	-1732.177	-883.07318	1100.67578	-1750.57959	-827.06549	960.97729	-1769.90466	-755.17926	858.46436	-1717.89648	-804.08154	843.71198	-1767.48865	-745.32245	774.75415	-1761.60828	-915.59467	1415.44836	-1330.67896	-955.66626	1217.96338	-1240.75854	-946.42456	1095.60864	-1229.20972	-922.91364	977.30939	-1214.85767	-854.70758	844.36279	-1251.40039	-906.81476	840.36407	-1208.91064	-863.0412	767.81262	-1211.30688	-825.70544	967.84399	-1584.49194	-830.10614	978.79138	-1362.43665	-983.71289	998.70624	-1556.42163	-981.05719	1000.99548	-1387.99707	-901.16028	654.59735	-1631.35168	-908.94971	491.30597	-1605.75708	-961.61572	239.94238	-1590.15894	-979.88727	70.30439	-1538.54883	-1021.79852	58.24743	-1494.86963	-834.5141	40.63732	-1528.9071	-817.49994	650.47876	-1303.63586	-778.64594	531.13898	-1327.53967	-894.3576	297.80698	-1316.8197	-972.9682	126.73073	-1348.0542	-1016.14172	107.82946	-1394.32446	-839.87616	55.84225	-1337.25525	-935.49603	1709.13806	-1493.87134	NaN	NaN	NaN	NaN	NaN	NaN	NaN	NaN	NaN	NaN	NaN	NaN	NaN	NaN	NaN	NaN	NaN	NaN	NaN	NaN	NaN	NaN	NaN	NaN	NaN	NaN	NaN	NaN	NaN	NaN	NaN	NaN	NaN
72	0.71	-825.01654	1668.81799	-1545.09253	-835.0968	1657.67017	-1414.46887	-959.0047	1617.12305	-1555.95654	-967.32251	1611.31189	-1427.77942	-969.20929	1459.77698	-1496.89783	-1001.25031	1130.19299	-1481.21655	-859.95062	1381.1925	-1489.20264	-821.15729	1205.19934	-1491.52295	-1045.43726	1289.86731	-1415.80212	-905.75415	1410.80615	-1653.17822	-887.08777	1211.92139	-1732.57288	-874.51703	1101.07483	-1751.18896	-816.71313	962.07275	-1770.0321	-743.45239	860.80225	-1717.66821	-792.15466	845.06873	-1767.14465	-732.32849	777.06903	-1761.02856	-909.86652	1415.12439	-1330.86328	-950.61206	1217.63684	-1241.22974	-941.51013	1095.32385	-1229.72839	-918.21619	976.96893	-1215.33447	-849.92999	844.05981	-1251.68701	-902.28131	839.96722	-1209.37463	-858.68604	767.45831	-1211.57874	-819.86707	967.53479	-1584.34155	-824.89453	979.07629	-1362.37683	-978.07111	998.34039	-1556.65125	-975.63757	1000.95984	-1388.2356	-896.12042	654.17297	-1630.80054	-904.96216	490.91992	-1605.13281	-959.13153	239.60854	-1589.47473	-979.57764	70.38226	-1538.31799	-1021.62305	58.46764	-1494.67932	-834.0448	40.50259	-1528.51062	-810.20471	651.82733	-1302.43176	-770.27075	532.53613	-1326.83081	-878.33356	295.45493	-1315.60767	-950.17297	121.30174	-1346.71021	-992.49072	101.05514	-1393.13318	-814.91711	54.4602	-1335.61731	-928.69403	1709.01868	-1493.67224	NaN	NaN	NaN	NaN	NaN	NaN	NaN	NaN	NaN	NaN	NaN	NaN	NaN	NaN	NaN	NaN	NaN	NaN	NaN	NaN	NaN	NaN	NaN	NaN	NaN	NaN	NaN	NaN	NaN	NaN	NaN	NaN	NaN
73	0.72	-818.25537	1668.4812	-1544.86499	-828.57001	1657.18713	-1414.2196	-952.39209	1617.09473	-1555.80664	-960.82172	1611.15002	-1427.67383	-963.00885	1459.68201	-1497.05127	-995.7453	1130.10278	-1481.6394	-853.8075	1380.91345	-1489.2002	-815.58966	1204.82581	-1491.62659	-1039.74524	1289.87048	-1416.38013	-899.23151	1410.82837	-1653.20264	-879.3526	1212.24915	-1732.93115	-866.0318	1101.35193	-1751.67468	-806.16187	962.79236	-1769.73999	-731.98157	863.07959	-1717.24097	-780.36334	846.38348	-1766.61584	-719.56506	779.38104	-1760.23657	-904.1568	1414.7522	-1330.98035	-945.6275	1217.23352	-1241.62244	-936.65704	1094.94739	-1230.19434	-913.58197	976.5545	-1215.71729	-845.07343	843.67535	-1251.85095	-897.74573	839.52942	-1209.83435	-854.12054	766.98779	-1211.88818	-813.48407	967.23822	-1583.92212	-818.96356	979.27118	-1361.81274	-972.4101	997.91742	-1556.82214	-970.24951	1000.92731	-1388.37341	-891.07214	653.69427	-1630.24561	-901.11884	490.49728	-1604.55603	-957.35248	239.73691	-1588.9989	-979.31323	70.51913	-1538.16125	-1021.50427	58.76223	-1494.54077	-833.96832	40.50894	-1528.34924	-803.43518	652.57355	-1301.46558	-762.0144	533.888	-1325.71899	-862.26971	293.17133	-1314.27161	-927.23883	116.3092	-1345.15723	-968.72693	94.71732	-1391.73401	-789.57196	53.29292	-1333.72705	-921.91528	1708.85254	-1493.42578	NaN	NaN	NaN	NaN	NaN	NaN	NaN	NaN	NaN	NaN	NaN	NaN	NaN	NaN	NaN	NaN	NaN	NaN	NaN	NaN	NaN	NaN	NaN	NaN	NaN	NaN	NaN	NaN	NaN	NaN	NaN	NaN	NaN
74	0.73	-811.50629	1668.13843	-1544.52197	-821.88806	1656.68091	-1413.88806	-945.7533	1617.03552	-1555.66541	-954.30664	1610.93787	-1427.46631	-956.78864	1459.50085	-1497.23511	-990.19525	1129.97302	-1482.00916	-847.6925	1380.58374	-1489.17529	-809.89343	1204.39917	-1491.73718	-1034.05835	1289.74011	-1416.97778	-892.70599	1410.73364	-1653.17554	-871.8161	1212.4353	-1733.19482	-857.68933	1101.71985	-1752.12988	-796.15936	963.82477	-1769.61377	-720.72864	865.33948	-1716.5929	-768.75244	847.71631	-1765.98474	-706.99567	781.59039	-1759.23669	-898.49323	1414.30664	-1331.00403	-940.62958	1216.79395	-1242.01074	-931.79358	1094.46667	-1230.5791	-908.91101	976.08264	-1216.05054	-840.49762	843.11249	-1252.04651	-893.25153	839.0144	-1210.17932	-849.87708	766.36163	-1212.16687	-807.4978	966.84485	-1583.67236	-813.53687	979.44562	-1361.68188	-966.77991	997.48297	-1556.96912	-964.77734	1000.74719	-1388.56677	-886.03162	653.21643	-1629.72986	-897.41577	490.10437	-1604.05603	-955.74628	239.84563	-1588.79822	-979.06866	70.68623	-1538.026	-1021.55023	59.15084	-1494.44849	-833.88812	40.48692	-1528.17737	-796.96442	653.24664	-1300.38147	-754.21179	534.9707	-1324.71472	-846.32263	290.97314	-1312.88062	-904.12616	111.51701	-1343.59924	-944.97021	88.85619	-1390.11963	-764.58844	52.20153	-1332.53516	-915.17389	1708.74365	-1493.10522	NaN	NaN	NaN	NaN	NaN	NaN	NaN	NaN	NaN	NaN	NaN	NaN	NaN	NaN	NaN	NaN	NaN	NaN	NaN	NaN	NaN	NaN	NaN	NaN	NaN	NaN	NaN	NaN	NaN	NaN	NaN	NaN	NaN
75	0.74	-804.73462	1667.6532	-1544.0675	-815.29974	1656.0907	-1413.49939	-939.10773	1616.91711	-1555.36829	-947.79932	1610.68091	-1427.25537	-950.55634	1459.30286	-1497.28638	-984.56061	1129.75305	-1482.30627	-841.61993	1380.15283	-1489.0647	-804.11108	1203.93616	-1491.77563	-1028.34644	1289.5791	-1417.44202	-886.284	1410.58105	-1653.11975	-864.35309	1212.56738	-1733.42261	-849.41058	1101.87158	-1752.45544	-786.34186	964.89624	-1769.68176	-709.63208	867.4256	-1715.7312	-757.27673	849.00146	-1765.19397	-694.62982	783.74951	-1757.99451	-892.77039	1413.81958	-1330.95544	-935.5802	1216.2489	-1242.34998	-926.95557	1093.96741	-1230.88159	-904.26672	975.51648	-1216.34351	-835.90131	842.43848	-1252.12976	-888.82227	838.46179	-1210.47351	-845.32788	765.8562	-1212.28271	-803.00244	966.24426	-1583.92651	-808.66003	979.30609	-1361.91797	-961.17871	997.03564	-1557.10681	-959.29517	1000.547	-1388.72241	-881.07288	652.77557	-1629.26624	-893.82373	489.69653	-1603.61792	-953.89465	239.76768	-1588.32068	-978.81213	70.91615	-1537.93506	-1021.42169	59.46096	-1494.39673	-833.95209	40.43198	-1528.0957	-790.74957	653.64514	-1299.20544	-746.87988	535.74219	-1323.88379	-830.45526	288.79657	-1311.35571	-881.11938	107.1329	-1342.01624	-921.34418	83.41529	-1388.49487	-739.84595	51.46694	-1331.70288	-908.35217	1708.39197	-1492.73718	NaN	NaN	NaN	NaN	NaN	NaN	NaN	NaN	NaN	NaN	NaN	NaN	NaN	NaN	NaN	NaN	NaN	NaN	NaN	NaN	NaN	NaN	NaN	NaN	NaN	NaN	NaN	NaN	NaN	NaN	NaN	NaN	NaN
76	0.75	-798.05243	1667.20801	-1543.64783	-808.69861	1655.46313	-1413.0636	-932.48309	1616.75476	-1555.08264	-941.33417	1610.44727	-1427.02454	-944.30334	1459.05066	-1497.25415	-978.95258	1129.50793	-1482.47205	-835.58313	1379.70447	-1488.93982	-798.43127	1203.41504	-1491.76184	-1022.59247	1289.37292	-1417.82837	-879.86432	1410.33521	-1653.00159	-856.94727	1212.49475	-1733.52966	-841.25336	1101.94397	-1752.72913	-776.51105	965.71814	-1769.31299	-698.61395	869.5683	-1714.73267	-745.9726	850.18103	-1764.26624	-682.48596	785.80933	-1756.56702	-886.99866	1413.23694	-1330.86523	-930.37598	1215.66125	-1242.68481	-922.01886	1093.39417	-1231.21948	-899.51306	974.88397	-1216.63586	-831.15869	841.79199	-1252.17554	-884.26025	837.85278	-1210.78406	-840.88971	765.15759	-1212.34937	-797.42828	965.74585	-1583.81812	-802.65088	979.17328	-1361.47485	-955.55798	996.59875	-1557.17896	-953.67316	1000.19568	-1388.77588	-876.2583	652.3186	-1628.86304	-890.22388	489.32571	-1603.22754	-952.11444	239.82045	-1587.6947	-978.55298	71.1115	-1537.82593	-1021.30975	59.77117	-1494.28687	-833.88092	40.46027	-1527.91223	-784.56128	653.9093	-1298.02258	-739.63641	536.31604	-1322.87476	-814.68073	286.69687	-1309.92871	-858.26837	103.12921	-1340.35229	-897.83911	78.35713	-1386.83179	-715.0351	51.26209	-1330.84973	-901.56213	1708.05176	-1492.28918	NaN	NaN	NaN	NaN	NaN	NaN	NaN	NaN	NaN	NaN	NaN	NaN	NaN	NaN	NaN	NaN	NaN	NaN	NaN	NaN	NaN	NaN	NaN	NaN	NaN	NaN	NaN	NaN	NaN	NaN	NaN	NaN	NaN
